HIERARCHY
ROOT hip
{
	OFFSET 0.000000 0.000000 0.000000 
	CHANNELS 6 Xposition Yposition Zposition Xrotation Zrotation Yrotation
	JOINT abdomen
	{
		OFFSET 0.000000 3.402643 0.000000 
		CHANNELS 3 Xrotation Zrotation Yrotation
		JOINT chest
		{
			OFFSET 0.000000 8.438565 -0.680529 
			CHANNELS 3 Xrotation Zrotation Yrotation
			JOINT neck
			{
				OFFSET 0.000000 10.207942 -0.272212 
				CHANNELS 3 Xrotation Zrotation Yrotation
				JOINT head
				{
					OFFSET 0.000000 3.130431 0.000000 
					CHANNELS 3 Xrotation Zrotation Yrotation
					End Site
					{
						OFFSET 0.000000 3.130435 0.000000 
					}
				}
			}
			JOINT lCollar
			{
				OFFSET 3.470700 6.669187 -0.816635 
				CHANNELS 3 Yrotation Zrotation Xrotation
				JOINT lShldr
				{
					OFFSET 3.198488 0.000000 0.000000 
					CHANNELS 3 Zrotation Yrotation Xrotation
					JOINT lForeArm
					{
						OFFSET 10.139888 0.000000 0.000000 
						CHANNELS 3 Yrotation Zrotation Xrotation
						JOINT lHand
						{
							OFFSET 8.370511 0.000000 0.000000 
							CHANNELS 3 Zrotation Yrotation Xrotation
							End Site
							{
								OFFSET 4.083176 0.000000 0.000000 
							}
						}
					}
				}
			}
			JOINT rCollar
			{
				OFFSET -3.470700 6.669187 -0.816635 
				CHANNELS 3 Yrotation Zrotation Xrotation
				JOINT rShldr
				{
					OFFSET -3.198488 0.000000 0.000000 
					CHANNELS 3 Zrotation Yrotation Xrotation
					JOINT rForeArm
					{
						OFFSET -10.139888 0.000000 0.000000 
						CHANNELS 3 Yrotation Zrotation Xrotation
						JOINT rHand
						{
							OFFSET -8.370511 0.000000 0.000000 
							CHANNELS 3 Zrotation Yrotation Xrotation
							End Site
							{
								OFFSET -4.083176 0.000000 0.000000 
							}
						}
					}
				}
			}
		}
	}
	JOINT lThigh
	{
		OFFSET 5.308129 -1.633274 1.361059 
		CHANNELS 3 Xrotation Zrotation Yrotation
		JOINT lShin
		{
			OFFSET -2.041588 -20.007561 0.000000 
			CHANNELS 3 Xrotation Zrotation Yrotation
			JOINT lFoot
			{
				OFFSET 0.000000 -19.190928 -1.224953 
				CHANNELS 3 Xrotation Yrotation Zrotation
				End Site
				{
					OFFSET 0.000000 -2.449906 4.627600 
				}
			}
		}
	}
	JOINT rThigh
	{
		OFFSET -5.308129 -1.633274 1.361059 
		CHANNELS 3 Xrotation Zrotation Yrotation
		JOINT rShin
		{
			OFFSET 2.041588 -20.007561 0.000000 
			CHANNELS 3 Xrotation Zrotation Yrotation
			JOINT rFoot
			{
				OFFSET 0.000000 -19.190928 -1.224953 
				CHANNELS 3 Xrotation Yrotation Zrotation
				End Site
				{
					OFFSET 0.000000 -2.449906 4.627600 
				}
			}
		}
	}
}
MOTION
Frames: 16
Frame Time: 0.033333
-0.601591 49.153442 1.024141 2.043577 -0.925717 -3.779907 0.000000 0.000000 0.000000 -2.907041 -1.035076 -0.713127 0.495837 -0.087565 -4.931650 13.256847 6.171812 -4.576844 -5.687126 -5.302349 -2.313493 -56.010509 10.862463 -14.992467 -39.993229 1.145365 11.131150 -17.183743 5.865640 -3.899628 6.977073 11.948302 -2.768750 47.698669 -21.710634 -4.981849 46.249508 5.193430 28.369276 -10.782134 1.635798 -3.907175 -4.332437 5.834418 4.757069 17.247068 -2.330434 19.591070 -12.847118 0.817656 -7.063618 -2.567453 -8.978988 -5.865617 11.150872 2.402106 -4.893606 -8.770396 -0.657187 8.263548 
-0.474756 49.152557 0.729896 1.897477 -1.402648 -4.102961 0.000000 0.000000 0.000000 -2.060104 -0.937287 -1.221019 0.633059 -0.272042 -5.791090 12.847518 6.712522 -5.034127 -6.623780 -6.573453 -1.621231 -59.725967 11.094472 -10.279216 -42.721550 -0.217584 11.565675 -17.100266 8.127558 -4.274827 7.163669 14.017142 -2.220669 53.360851 -21.463387 -5.437968 46.037163 5.771081 28.320972 -12.497764 1.211064 -3.936991 -4.901502 6.180401 4.883566 18.073462 -2.255475 19.951965 -12.907699 0.797045 -7.020782 -2.617153 -8.563121 -5.620768 10.633214 2.402015 -5.022272 -8.045484 -0.585829 8.258866 
-0.363759 49.154682 0.385015 1.972146 -1.790938 -4.660501 0.000000 0.000000 0.000000 -1.329870 -0.907785 -1.738527 1.052321 -0.669556 -6.455549 11.991231 7.291413 -5.454275 -7.330853 -7.488766 -1.015427 -61.998482 10.771844 -3.268099 -45.642220 -2.177211 13.256658 -16.358631 9.793406 -4.516425 6.787944 14.807886 -1.638618 60.406441 -21.104219 -7.924923 45.224945 6.206864 26.873053 -13.630177 -0.197540 -3.840805 -5.639420 6.467705 4.967573 18.703579 -2.275893 20.427181 -12.874623 0.775802 -6.921952 -2.998022 -8.202269 -5.318610 10.131093 2.410067 -4.837088 -7.262178 -0.527121 8.203419 
-0.250470 49.145142 0.051935 1.964413 -2.050168 -5.755945 0.000000 0.000000 0.000000 -0.587456 -0.936748 -2.295254 1.831766 -1.270227 -6.827950 11.115255 7.987760 -5.728518 -7.433009 -7.951459 -0.361622 -63.296082 9.406554 5.321847 -48.654198 -4.320323 15.978090 -15.512890 9.927938 -4.489354 6.156428 14.590952 -0.944939 66.613068 -21.019070 -8.656171 43.892490 6.955842 23.844624 -14.192504 -0.876025 -3.777685 -6.239567 6.600678 5.016368 19.338003 -2.217143 21.725050 -12.780153 0.786971 -7.001888 -3.512773 -7.979810 -5.003941 9.959803 2.402088 -3.941108 -6.663142 -0.487894 8.078923 
-0.108830 49.147285 -0.316287 1.979776 -2.544564 -7.810601 0.000000 0.000000 0.000000 0.139742 -0.761033 -2.431945 2.741659 -1.629256 -6.750859 10.954199 8.035379 -5.798921 -7.357810 -8.456856 0.304143 -63.485336 6.977651 14.605597 -51.936848 -6.049893 20.564898 -13.719629 8.969123 -4.247746 5.856106 14.437128 -0.261663 69.572159 -21.269182 -7.529428 42.363857 8.113052 19.008251 -14.041321 -0.196649 -3.846392 -6.686966 6.998812 5.416463 19.992207 -2.324426 23.512419 -12.732930 0.804736 -7.111889 -3.747949 -7.650439 -4.648905 8.869090 2.565877 -1.840607 -5.577487 -0.387593 7.821111 
-0.029582 49.157833 -0.698789 1.692955 -2.911657 -11.265050 0.000000 0.000000 0.000000 0.990414 -0.839512 -1.611584 3.741981 -1.894077 -5.941022 12.027727 7.163624 -5.570527 -6.674705 -8.507567 1.098765 -63.638977 3.201091 23.982983 -55.060127 -7.311025 26.056536 -9.585523 7.385672 -3.900665 6.433385 14.368577 0.560288 69.881920 -21.898983 -8.441982 41.767612 8.361480 16.549229 -11.052684 -1.143949 -3.707025 -6.255867 7.581946 6.342069 20.296825 -2.794232 25.903965 -12.700699 0.815001 -7.367677 -3.835668 -7.387537 -4.178666 7.701362 2.733088 2.124566 -4.430734 -0.236342 7.382171 
0.017220 49.150501 -1.043587 0.789683 -2.768988 -14.607343 0.000000 0.000000 0.000000 2.132713 -1.591626 -0.840333 4.732321 -2.197857 -5.228620 14.310186 5.622899 -5.033440 -6.195527 -8.637198 2.081207 -63.103878 -1.548415 32.476555 -58.143932 -8.110550 30.175919 -6.645477 3.824684 -3.513918 6.662712 13.391433 1.771619 68.413345 -22.279636 -8.325119 41.720776 7.970705 19.368303 -10.083753 -2.494874 -3.571787 -4.989123 7.478034 7.172406 20.100746 -3.261998 28.406233 -12.479487 0.845002 -7.653408 -5.486441 -8.053474 -4.100117 10.888853 3.066187 7.989801 -4.578291 -0.265613 6.694712 
0.177548 49.112373 -1.520956 1.560213 -3.276329 -16.570967 0.000000 0.000000 0.000000 2.336500 -1.435195 -1.270111 5.134410 -1.769791 -5.285803 15.928362 4.372248 -4.338126 -6.766973 -8.094234 2.262477 -61.589539 -6.587066 39.570568 -60.906731 -8.214438 32.696491 -4.984371 -1.098424 -3.246677 6.114950 13.278831 1.961881 64.783836 -22.631554 -5.630094 42.299076 7.933722 22.439383 -12.009410 -3.398663 -3.506694 -6.611036 8.202515 7.359567 21.361465 -3.243691 29.912840 -12.463434 0.846333 -7.913627 -9.011259 -8.317764 -4.014848 14.977446 3.906139 13.131608 -4.020984 -0.174143 5.790631 
0.341286 49.072170 -1.940998 3.098312 -4.182336 -17.911156 0.000000 0.000000 0.000000 1.966787 -0.556147 -2.412280 5.362665 -1.117769 -5.557867 16.408777 3.820504 -3.620857 -7.932325 -7.398423 1.988794 -59.491562 -10.429104 44.880703 -63.400452 -7.861199 32.492683 -1.979394 -3.294660 -3.281825 5.205709 13.530765 1.547414 61.252174 -22.742514 -3.726873 43.023354 7.994620 22.796141 -14.130248 -4.870989 -3.346823 -9.195524 9.516573 7.389131 23.137306 -2.949855 30.802404 -12.602904 0.912079 -8.275101 -11.772777 -8.053177 -4.084464 16.943747 5.097500 16.541817 -2.624584 -0.100537 5.079352 
0.398788 49.100414 -2.190313 3.295740 -4.783839 -18.690977 0.000000 0.000000 0.000000 2.277826 -0.038987 -3.574225 5.868932 -0.747906 -5.947777 16.917698 3.169676 -2.933841 -9.096734 -7.101602 2.311506 -57.587093 -13.047989 47.791218 -65.093536 -7.376341 30.636490 0.116645 -2.115952 -3.419962 3.948079 13.167366 1.838460 58.869030 -22.209753 -3.084843 42.761070 8.052100 21.253891 -16.000252 -5.700165 -3.218173 -9.529582 10.163747 7.540210 23.395802 -2.763625 31.233130 -12.391585 0.925454 -8.416579 -12.128714 -8.261644 -4.702560 17.554350 5.771158 16.542967 -1.351325 -0.030875 5.086289 
0.322807 49.177319 -2.420592 3.212065 -4.993630 -19.412628 0.000000 0.000000 0.000000 2.616686 0.136333 -4.306652 6.245713 -0.495077 -6.260037 17.255886 2.517243 -2.443338 -9.823944 -6.882610 2.615602 -56.174881 -14.627675 48.030579 -64.895355 -7.597362 29.761959 0.489393 -1.301019 -3.457772 3.066551 13.110110 2.159501 56.773125 -22.093870 -3.632016 42.411469 8.143549 18.225370 -16.581110 -5.361737 -3.252915 -9.108012 10.463778 7.672673 22.740791 -2.708617 31.697767 -11.814239 0.883005 -8.382409 -11.265752 -8.434193 -5.364708 16.699875 5.799428 11.709936 -0.056741 0.022334 6.129367 
0.157672 49.278347 -2.645446 3.274195 -4.940169 -20.245102 0.000000 0.000000 0.000000 2.636298 0.243324 -4.687541 6.556168 -0.378481 -6.406432 16.918797 2.205465 -2.159610 -10.349073 -6.694941 2.629294 -55.181168 -14.773028 45.840775 -62.699032 -8.539656 29.209393 0.311316 -1.272676 -3.443620 2.570200 12.936540 2.179491 55.516380 -22.247828 -4.755737 41.766655 8.147355 15.652509 -16.777447 -4.786005 -3.322011 -8.660635 10.720170 7.936885 21.602798 -2.762550 32.270012 -10.966945 0.814216 -8.311647 -10.697247 -8.588063 -5.901586 16.498947 5.262339 4.953983 0.743355 0.060717 6.950013 
-0.038612 49.350521 -2.842340 3.324411 -4.555322 -20.850618 0.000000 0.000000 0.000000 2.518074 0.243237 -4.931678 6.605573 -0.203722 -6.591859 16.403620 2.000695 -2.032398 -10.805611 -6.345023 2.526939 -54.635624 -13.937818 42.117020 -59.180992 -9.711270 29.977274 -0.168764 -0.939498 -3.424577 2.240001 12.890795 2.090115 54.488903 -22.514532 -5.264276 40.948078 8.254310 13.977468 -17.909101 -4.695439 -3.319561 -8.287851 10.736716 8.093664 20.470610 -2.909122 32.690739 -10.180717 0.755121 -8.215588 -10.369904 -9.227196 -6.643194 17.219913 4.802793 -0.698789 1.013867 0.035283 7.725063 
-0.319195 49.356144 -2.992610 3.063676 -3.945163 -21.469589 0.000000 0.000000 0.000000 2.584072 0.243021 -5.488315 6.172342 -0.834092 -6.709834 17.441778 2.264605 -1.719723 -9.796782 -7.047568 2.615773 -54.097561 -12.040736 37.282322 -55.399635 -10.493005 32.094883 -0.740436 0.112294 -3.419677 1.395299 11.770300 2.213165 54.499763 -22.348719 -4.942794 39.978355 8.499520 13.428018 -19.107584 -4.916027 -3.270349 -7.721317 10.560196 8.256263 19.769503 -3.115691 33.104141 -9.669217 0.707307 -8.389169 -9.459203 -10.297465 -7.323400 17.736626 4.336726 -3.125317 0.841511 0.067800 9.292317 
-0.672381 49.325790 -3.153433 2.630774 -3.268351 -22.040012 0.000000 0.000000 0.000000 2.559536 -0.009720 -5.537111 6.435882 -0.998971 -6.710174 16.611931 2.596500 -1.710326 -9.940566 -7.313879 2.539505 -54.107529 -8.839044 30.612617 -51.866520 -10.279858 31.649689 -2.058851 2.351435 -3.481644 1.545275 11.238129 2.197656 55.508041 -23.092609 -5.991560 39.361706 8.277794 13.708788 -19.448042 -5.367442 -3.200023 -7.144793 10.344436 8.417171 19.301525 -3.311572 33.456207 -9.234341 0.720690 -8.653128 -8.046255 -11.326538 -7.745355 17.042204 3.640013 -4.089816 0.535199 0.019946 10.867340 
-1.084920 49.280716 -3.309469 2.990438 -2.526093 -22.523422 0.000000 0.000000 0.000000 1.998310 -0.184865 -4.912148 6.314417 -0.213342 -6.777406 15.130095 2.517759 -2.150223 -10.971421 -6.521389 1.996474 -55.081337 -5.281325 23.313332 -48.535488 -9.369719 29.875296 -1.955509 5.155252 -3.542153 2.278412 12.178753 1.655262 56.304226 -24.664324 -7.192916 39.084515 8.043445 13.758307 -19.092018 -5.572157 -3.164118 -7.466590 10.412314 8.429221 19.166162 -3.397182 33.706093 -8.868590 0.714485 -9.142152 -6.599626 -12.162956 -8.241988 14.071434 3.369008 -5.062678 0.549048 0.048426 11.720866 
